<svg width="302" height="204" viewBox="0 0 302 204" fill="none" xmlns="http://www.w3.org/2000/svg">
<path d="M228.756 159.047C230.9 158.898 232.517 157.04 232.367 154.896C232.224 152.845 230.516 151.276 228.49 151.276C228.4 151.276 228.309 151.279 228.217 151.285L227.05 151.366C226.787 149.978 226.432 148.608 225.986 147.265L227.063 146.769C229.015 145.871 229.869 143.562 228.971 141.61C228.316 140.184 226.907 139.343 225.433 139.343C224.891 139.343 224.338 139.458 223.811 139.7L222.701 140.212C222.688 140.218 222.674 140.225 222.661 140.231C221.89 139.006 221.03 137.824 220.084 136.694C220.11 136.667 220.138 136.642 220.163 136.615L221.017 135.741C222.517 134.202 222.484 131.739 220.946 130.239C220.19 129.502 219.209 129.135 218.23 129.135C217.218 129.135 216.207 129.527 215.444 130.31L214.592 131.184C214.539 131.237 214.49 131.292 214.442 131.348C213.269 130.468 212.025 129.645 210.705 128.891C210.572 128.815 210.437 128.741 210.302 128.667C210.339 128.594 210.373 128.518 210.404 128.442L210.866 127.311C211.677 125.321 210.723 123.05 208.733 122.239C206.743 121.427 204.473 122.383 203.661 124.372L203.199 125.503C203.168 125.579 203.142 125.656 203.115 125.733C201.306 125.234 199.47 124.895 197.628 124.712C197.631 124.63 197.634 124.547 197.632 124.463L197.61 123.242C197.572 121.094 195.799 119.383 193.651 119.421C191.526 119.46 189.83 121.195 189.83 123.311V123.382L189.852 124.603C189.854 124.689 189.86 124.773 189.866 124.857C188.174 125.088 186.504 125.451 184.867 125.939C184.837 125.861 184.808 125.783 184.774 125.705L184.289 124.583C183.433 122.613 181.142 121.707 179.172 122.561C177.704 123.198 176.827 124.63 176.827 126.134C176.827 126.65 176.93 127.173 177.149 127.678L177.635 128.799C177.668 128.874 177.701 128.946 177.738 129.017C176.51 129.728 175.324 130.524 174.187 131.398C174.136 131.339 174.083 131.28 174.027 131.224L173.173 130.351C171.67 128.815 169.206 128.788 167.671 130.291C166.892 131.053 166.502 132.062 166.502 133.072C166.502 134.054 166.87 135.036 167.612 135.793L168.466 136.666C168.52 136.723 168.578 136.776 168.635 136.828C168.018 137.595 167.426 138.394 166.869 139.228C166.625 139.593 166.392 139.961 166.165 140.332C166.098 140.295 166.03 140.261 165.959 140.228L164.849 139.718C162.896 138.821 160.586 139.677 159.689 141.629C159.447 142.156 159.334 142.707 159.334 143.25C159.334 144.723 160.176 146.134 161.602 146.789L162.712 147.299C162.775 147.329 162.84 147.355 162.905 147.382C162.368 149.031 161.969 150.706 161.7 152.393C161.634 152.387 161.566 152.382 161.497 152.379L160.276 152.332C158.129 152.25 156.322 153.923 156.238 156.07C156.237 156.122 156.235 156.172 156.235 156.222C156.235 158.301 157.881 160.027 159.976 160.108L161.197 160.155C161.262 160.157 161.329 160.158 161.394 160.158C161.54 162.022 161.843 163.87 162.301 165.68C162.241 165.7 162.181 165.72 162.122 165.744L160.982 166.182C158.975 166.952 157.974 169.202 158.745 171.207C159.34 172.754 160.813 173.704 162.376 173.704C162.84 173.704 163.312 173.621 163.771 173.444L164.912 173.006C164.965 172.987 165.017 172.965 165.07 172.941C166.012 174.742 167.127 176.464 168.407 178.083C168.367 178.12 168.329 178.156 168.29 178.194L167.428 179.061C165.912 180.583 165.918 183.047 167.441 184.563C168.2 185.318 169.193 185.695 170.185 185.695C171.184 185.695 172.182 185.313 172.943 184.55L173.805 183.684C173.842 183.646 173.878 183.607 173.913 183.569C174.574 184.088 175.259 184.585 175.97 185.061C177.061 185.79 178.181 186.444 179.322 187.028C179.203 187.223 179.098 187.429 179.012 187.651L178.586 188.754C177.837 190.693 178.803 192.872 180.742 193.621C181.187 193.793 181.646 193.875 182.096 193.875C183.606 193.875 185.032 192.959 185.608 191.465L186.034 190.362C186.127 190.124 186.194 189.879 186.235 189.635C188.232 190.14 190.258 190.452 192.284 190.576C192.251 190.82 192.241 191.07 192.257 191.324L192.329 192.504C192.459 194.578 194.245 196.156 196.32 196.026C198.315 195.903 199.85 194.247 199.85 192.275C199.85 192.195 199.847 192.116 199.843 192.036L199.77 190.857C199.756 190.631 199.72 190.411 199.67 190.199C201.91 189.833 204.11 189.236 206.235 188.419C206.256 188.463 206.278 188.507 206.302 188.552L206.871 189.633C207.873 191.533 210.227 192.26 212.128 191.258C213.449 190.56 214.204 189.211 214.204 187.814C214.204 187.202 214.058 186.582 213.753 186.002L213.182 184.921C213.16 184.877 213.135 184.834 213.11 184.791C214.545 183.802 215.91 182.692 217.192 181.462C217.23 181.497 217.268 181.531 217.308 181.564L218.25 182.342C219.908 183.711 222.359 183.478 223.727 181.82C224.326 181.095 224.619 180.217 224.619 179.344C224.619 178.224 224.137 177.113 223.206 176.343L222.264 175.565C222.221 175.529 222.177 175.495 222.133 175.462C222.973 174.168 223.715 172.846 224.359 171.499C224.401 171.514 224.441 171.529 224.482 171.544L225.642 171.924C227.685 172.595 229.883 171.485 230.553 169.442C230.686 169.038 230.749 168.63 230.749 168.227C230.749 166.592 229.709 165.07 228.073 164.532L226.912 164.151C226.902 164.148 226.891 164.145 226.883 164.142C227.241 162.478 227.467 160.802 227.561 159.132L228.756 159.047ZM215.43 171.328C207.863 182.942 191.923 186.229 180.385 178.545C168.796 170.828 165.675 155.172 173.412 143.602C181.139 132.045 196.771 128.941 208.326 136.668C219.797 144.339 222.941 159.798 215.43 171.328Z" fill="#99B9FF"/>
<path d="M284.336 83.2151C285.322 83.1466 286.066 82.2926 285.997 81.307C285.931 80.3641 285.146 79.6429 284.214 79.6429C284.173 79.6429 284.131 79.6443 284.089 79.647L283.552 79.6843C283.432 79.0464 283.268 78.4167 283.064 77.7992L283.558 77.5714C284.456 77.1586 284.848 76.0971 284.435 75.1997C284.134 74.5442 283.486 74.1578 282.809 74.1578C282.56 74.1578 282.306 74.2107 282.064 74.3219L281.553 74.5571C281.547 74.5598 281.541 74.5632 281.535 74.5659C281.181 74.0026 280.785 73.4597 280.35 72.9398C280.362 72.9276 280.375 72.9161 280.387 72.9039L280.779 72.502C281.469 71.7943 281.454 70.6623 280.747 69.9729C280.399 69.634 279.948 69.4652 279.498 69.4652C279.033 69.4652 278.568 69.6455 278.218 70.0055L277.826 70.4075C277.801 70.4318 277.779 70.4569 277.757 70.4827C277.218 70.078 276.646 69.6997 276.039 69.3534C275.978 69.3181 275.916 69.2842 275.854 69.2504C275.871 69.2165 275.887 69.1819 275.901 69.1467L276.113 68.6268C276.486 67.7123 276.047 66.6685 275.133 66.2957C274.218 65.9222 273.175 66.3615 272.801 67.2758L272.589 67.7957C272.575 67.831 272.562 67.8662 272.55 67.9015C271.718 67.6724 270.875 67.5165 270.028 67.4324C270.029 67.3944 270.031 67.3565 270.03 67.3178L270.02 66.7566C270.002 65.769 269.187 64.9827 268.2 65.0003C267.223 65.0179 266.444 65.8157 266.444 66.7885V66.821L266.454 67.3823C266.454 67.4216 266.457 67.4602 266.46 67.4988C265.682 67.6053 264.914 67.772 264.162 67.9964C264.148 67.9604 264.135 67.9245 264.119 67.8886L263.896 67.3728C263.503 66.4672 262.45 66.051 261.544 66.4434C260.87 66.7362 260.466 67.3944 260.466 68.0858C260.466 68.3231 260.514 68.5637 260.614 68.7955L260.838 69.3107C260.853 69.3452 260.868 69.3785 260.885 69.411C260.321 69.7378 259.776 70.1038 259.253 70.5057C259.229 70.4786 259.205 70.4515 259.179 70.4258L258.787 70.0244C258.096 69.3182 256.963 69.306 256.258 69.9966C255.9 70.3471 255.72 70.8108 255.72 71.2751C255.72 71.7265 255.89 72.1779 256.231 72.5257L256.623 72.9269C256.648 72.9534 256.674 72.9778 256.701 73.0015C256.417 73.354 256.145 73.7214 255.889 74.1051C255.777 74.2725 255.67 74.4419 255.566 74.6121C255.534 74.5951 255.503 74.5795 255.471 74.5646L254.96 74.3301C254.063 73.918 253.001 74.3112 252.589 75.2086C252.477 75.4506 252.425 75.7041 252.425 75.9536C252.425 76.6307 252.812 77.2794 253.468 77.5804L253.978 77.815C254.007 77.8285 254.037 77.8407 254.067 77.8529C253.82 78.6108 253.636 79.3808 253.513 80.1562C253.483 80.1535 253.451 80.1515 253.42 80.1501L252.858 80.1285C251.871 80.0905 251.041 80.8598 251.002 81.8468C251.002 81.8705 251.001 81.8935 251.001 81.9166C251.001 82.8723 251.757 83.6654 252.721 83.7027L253.282 83.7244C253.312 83.7251 253.342 83.7257 253.372 83.7257C253.439 84.5825 253.579 85.4318 253.789 86.2642C253.762 86.2731 253.734 86.2825 253.707 86.2934L253.183 86.4947C252.26 86.8485 251.8 87.8829 252.155 88.8048C252.428 89.5158 253.105 89.9524 253.824 89.9524C254.037 89.9524 254.254 89.9144 254.465 89.8331L254.989 89.6318C255.014 89.6229 255.038 89.6128 255.062 89.6019C255.495 90.4296 256.008 91.2213 256.596 91.9656C256.578 91.9825 256.56 91.9988 256.542 92.0164L256.146 92.4149C255.449 93.1145 255.452 94.2472 256.152 94.9439C256.501 95.291 256.957 95.4645 257.413 95.4645C257.872 95.4645 258.331 95.289 258.681 94.9379L259.077 94.54C259.094 94.5223 259.111 94.5047 259.127 94.4871C259.431 94.7257 259.746 94.9541 260.073 95.173C260.574 95.5078 261.089 95.8088 261.613 96.0773C261.558 96.1668 261.51 96.2617 261.471 96.3633L261.275 96.8704C260.931 97.7618 261.375 98.7636 262.266 99.1079C262.471 99.1866 262.681 99.2245 262.888 99.2245C263.582 99.2245 264.238 98.8036 264.503 98.1169L264.699 97.6099C264.741 97.5001 264.772 97.3875 264.791 97.2757C265.709 97.5075 266.64 97.6512 267.571 97.7081C267.556 97.82 267.552 97.9352 267.559 98.0518L267.592 98.5941C267.652 99.5478 268.473 100.273 269.427 100.213C270.344 100.157 271.049 99.3953 271.049 98.489C271.049 98.4525 271.048 98.4158 271.046 98.3792L271.013 97.837C271.006 97.7332 270.99 97.6323 270.967 97.5347C271.996 97.3665 273.008 97.092 273.984 96.7165C273.994 96.7369 274.004 96.7572 274.015 96.7775L274.277 97.2744C274.738 98.1481 275.819 98.4823 276.693 98.0214C277.3 97.7007 277.647 97.0805 277.647 96.4386C277.647 96.1573 277.58 95.872 277.44 95.6056L277.178 95.1087C277.168 95.0884 277.156 95.0687 277.145 95.0491C277.804 94.5943 278.432 94.0838 279.021 93.5185C279.038 93.5348 279.056 93.5504 279.074 93.5653L279.507 93.9232C280.269 94.5522 281.396 94.4452 282.025 93.6833C282.3 93.3498 282.435 92.9465 282.435 92.5452C282.435 92.03 282.213 91.5196 281.786 91.1658L281.353 90.8078C281.333 90.7916 281.312 90.7759 281.292 90.7604C281.679 90.1659 282.019 89.5579 282.316 88.9391C282.335 88.9458 282.353 88.9526 282.372 88.9594L282.905 89.1343C283.844 89.4427 284.855 88.9323 285.163 87.9935C285.224 87.8078 285.253 87.62 285.253 87.435C285.253 86.6832 284.775 85.9837 284.022 85.7363L283.489 85.5614C283.484 85.5601 283.48 85.5587 283.475 85.5573C283.64 84.7921 283.744 84.022 283.787 83.254L284.336 83.2151ZM278.211 88.8602C274.733 94.1988 267.405 95.7097 262.102 92.1775C256.775 88.6304 255.34 81.4338 258.897 76.1155C262.448 70.8032 269.634 69.3764 274.946 72.9283C280.219 76.4544 281.664 83.5602 278.211 88.8602Z" fill="#99B9FF"/>
<path d="M238.444 149.55L105.302 170.451C101.647 171.025 98.2186 168.527 97.6447 164.872L79.2182 47.4942C78.6445 43.839 81.1424 40.4109 84.7974 39.8371L217.939 18.9358C221.595 18.3621 225.023 20.86 225.597 24.5151L244.023 141.893C244.597 145.548 242.099 148.976 238.444 149.55Z" fill="#E4E6FC"/>
<path d="M97.8158 179.679C93.9078 179.679 90.4616 176.83 89.8369 172.85L69.3412 42.2912C68.6502 37.8892 71.6694 33.7455 76.0715 33.0544L87.5764 31.2483C87.9196 31.1938 88.2423 31.4291 88.2962 31.7728C88.3502 32.1164 88.1153 32.4387 87.7717 32.4926L76.2667 34.2987C72.5507 34.8821 70.0021 38.38 70.5854 42.096L91.0811 172.655C91.6644 176.371 95.162 178.921 98.8785 178.336L158.392 168.994C158.735 168.94 159.058 169.174 159.112 169.518C159.166 169.862 158.931 170.184 158.587 170.238L99.0738 179.581C98.6512 179.647 98.2309 179.679 97.8158 179.679Z" fill="#2D2D2D"/>
<path d="M230.948 158.871C230.643 158.871 230.375 158.65 230.327 158.339C230.273 157.996 230.507 157.673 230.851 157.619L246.974 155.088C248.774 154.806 250.356 153.839 251.43 152.366C252.503 150.894 252.938 149.091 252.655 147.291L236.246 42.7636C236.192 42.42 236.427 42.0978 236.771 42.0438C237.115 41.9893 237.436 42.2246 237.49 42.5683L253.9 147.096C254.234 149.228 253.719 151.363 252.447 153.108C251.176 154.853 249.302 155.998 247.169 156.333L231.046 158.864C231.013 158.869 230.98 158.871 230.948 158.871Z" fill="#2D2D2D"/>
<path d="M234.949 31.0688C234.644 31.0688 234.376 30.8472 234.328 30.5366L232.16 16.7315C231.577 13.0155 228.078 10.4674 224.363 11.0503L128.635 26.0781C128.291 26.1326 127.969 25.8973 127.915 25.5537C127.861 25.21 128.096 24.8878 128.439 24.8338L224.168 9.80595C228.571 9.11495 232.714 12.1341 233.405 16.5363L235.572 30.3414C235.626 30.685 235.391 31.0073 235.047 31.0612C235.014 31.0662 234.982 31.0688 234.949 31.0688Z" fill="#2D2D2D"/>
<path d="M123.729 75.1629L110.634 77.2184C106.959 77.7954 103.511 75.2835 102.934 71.6078L101.618 63.2222C101.041 59.5465 103.553 56.0988 107.228 55.5218L120.322 53.4663C123.998 52.8893 127.446 55.4012 128.023 59.0769L129.339 67.4625C129.916 71.1384 127.404 74.5859 123.729 75.1629Z" fill="white"/>
<path d="M163.336 68.945L150.242 71.0007C146.566 71.5777 143.119 69.0657 142.542 65.39L141.225 57.0044C140.648 53.3287 143.16 49.8812 146.836 49.3042L159.93 47.2485C163.606 46.6715 167.053 49.1836 167.63 52.8592L168.947 61.2447C169.524 64.9205 167.012 68.3681 163.336 68.945Z" fill="white"/>
<path d="M130.29 110.897L117.195 112.953C113.52 113.53 110.072 111.017 109.495 107.342L108.179 98.9562C107.602 95.2805 110.114 91.833 113.789 91.2559L126.883 89.2003C130.559 88.6233 134.007 91.1352 134.584 94.811L135.9 103.197C136.477 106.872 133.965 110.32 130.29 110.897Z" fill="white"/>
<path d="M169.897 104.679L156.803 106.735C153.127 107.312 149.68 104.8 149.103 101.124L147.786 92.7385C147.209 89.0628 149.721 85.6152 153.397 85.0381L166.491 82.9826C170.167 82.4056 173.614 84.9175 174.191 88.5932L175.508 96.9789C176.085 100.655 173.573 104.102 169.897 104.679Z" fill="white"/>
<path d="M209.505 98.4614L196.411 100.517C192.735 101.094 189.287 98.582 188.71 94.9063L187.394 86.5206C186.817 82.8449 189.329 79.3973 193.005 78.8203L206.099 76.7648C209.775 76.1878 213.222 78.6997 213.799 82.3755L215.116 90.7612C215.693 94.4368 213.181 97.8844 209.505 98.4614Z" fill="white"/>
<path d="M135.7 145.369L122.606 147.424C118.93 148.001 115.483 145.489 114.906 141.813L113.589 133.428C113.012 129.752 115.524 126.304 119.2 125.727L132.294 123.672C135.97 123.095 139.417 125.607 139.994 129.283L141.311 137.668C141.888 141.344 139.376 144.792 135.7 145.369Z" fill="white"/>
<path d="M175.308 139.151L162.213 141.206C158.538 141.783 155.09 139.271 154.513 135.596L153.197 127.21C152.62 123.534 155.132 120.087 158.807 119.51L171.902 117.454C175.577 116.877 179.025 119.389 179.602 123.065L180.918 131.451C181.495 135.126 178.983 138.574 175.308 139.151Z" fill="#99B9FF"/>
<path d="M214.915 132.933L201.821 134.989C198.146 135.566 194.698 133.054 194.121 129.378L192.805 120.992C192.228 117.317 194.74 113.869 198.415 113.292L211.509 111.236C215.185 110.659 218.633 113.171 219.21 116.847L220.526 125.233C221.103 128.909 218.591 132.356 214.915 132.933Z" fill="#99B9FF"/>
<path d="M72.5207 145.083C65.3477 145.91 58.5908 141.55 56.3886 134.674C52.6685 123.058 54.3452 110.386 60.9584 100.137L70.4437 85.4295L111.591 111.98L102.106 126.688C95.4928 136.937 84.6379 143.686 72.5207 145.083Z" fill="#99B9FF"/>
<path d="M56.5577 134.41C63.7307 133.583 70.4876 137.943 72.6897 144.819C76.4099 156.436 74.7332 169.107 68.12 179.356L59.8606 192.16L18.7131 165.609L26.9724 152.805C33.5856 142.557 44.4406 135.807 56.5577 134.41Z" fill="#99B9FF"/>
<path d="M102.105 126.688C95.4921 136.937 84.6373 143.687 72.5201 145.084L102.105 126.688Z" fill="#99B9FF"/>
<path d="M58.1537 181.464C58.1523 181.463 29.184 162.771 29.153 162.751C28.7643 162.5 29.3042 162.108 29.6964 161.551C30.0631 161.031 30.4419 160.525 30.8346 160.033C35.291 154.443 41.4122 150.769 48.984 151.457C51.6476 151.699 54.1972 152.574 56.3237 154.221C59.4818 156.668 61.2553 160.338 61.9115 164.304C62.6035 168.487 62.0506 173 60.5652 176.744C60.1903 177.688 58.7863 181.873 58.1537 181.464Z" fill="#3047FD"/>
<path d="M100.131 116.415L99.5124 117.373L98.0048 119.71L95.1032 124.207C90.4426 131.43 82.7916 136.187 74.2521 137.172C69.1965 137.754 64.4339 134.682 62.882 129.835C61.4662 125.413 61.1598 120.774 61.9124 116.305C62.5501 112.507 63.9533 108.831 66.089 105.515L66.1026 105.494L71.13 97.7022L94.3192 112.665L100.131 116.415Z" fill="#3047FD"/>
<path d="M49.6296 163.18C49.582 163.158 49.5355 163.132 49.4901 163.103C48.9664 162.765 48.8157 162.067 49.1531 161.543L56.8321 149.633C57.1697 149.109 57.8676 148.958 58.3915 149.296C58.9151 149.634 59.0659 150.332 58.7283 150.855L51.0494 162.766C50.741 163.244 50.1318 163.411 49.6296 163.18Z" fill="#3047FD"/>
<path d="M60.7169 145.982C60.6694 145.96 60.6229 145.934 60.5775 145.905C60.0539 145.568 59.9028 144.869 60.2405 144.346L68.9586 130.817C69.2961 130.294 69.9933 130.144 70.5179 130.48C71.0416 130.818 71.1926 131.516 70.855 132.04L62.1369 145.568C61.8285 146.046 61.2192 146.214 60.7169 145.982Z" fill="#3047FD"/>
<path d="M59.6024 192.75C59.5757 192.737 59.5496 192.723 59.5242 192.707L18.3728 166.139C18.0806 165.951 17.9967 165.561 18.1853 165.269C18.3739 164.976 18.7632 164.892 19.056 165.081L60.2074 191.648C60.4996 191.837 60.5835 192.227 60.3949 192.519C60.2225 192.786 59.8826 192.879 59.6024 192.75Z" fill="#2D2D2D"/>
<path d="M111.327 112.553C111.3 112.541 111.274 112.526 111.249 112.51L70.1015 85.9594C69.8093 85.7708 69.7253 85.381 69.9138 85.0887C70.1022 84.7965 70.4916 84.7122 70.7845 84.901L111.932 111.452C112.224 111.64 112.308 112.03 112.12 112.322C111.947 112.589 111.607 112.682 111.327 112.553Z" fill="#2D2D2D"/>
<path d="M100.131 116.415L99.5125 117.373L98.0049 119.71L61.9124 116.305C62.5501 112.507 63.9533 108.831 66.089 105.515L66.1026 105.494L71.13 97.7022L94.3192 112.665L100.131 116.415Z" fill="white"/>
<path d="M107.851 50.1203C107.172 50.1203 106.525 49.8762 106.012 49.4232C105.455 48.9309 105.123 48.251 105.076 47.5087L105.042 46.9487C104.238 46.8744 103.436 46.7499 102.647 46.5764L102.444 47.102C102.033 48.168 100.988 48.8843 99.8458 48.8843C99.5048 48.8843 99.168 48.8213 98.8448 48.6971C98.15 48.4287 97.6019 47.9065 97.3007 47.2264C96.9994 46.5461 96.981 45.7893 97.2492 45.0954L97.4362 44.6112C96.9414 44.3387 96.4566 44.0442 95.9893 43.7323C95.7275 43.5568 95.4704 43.3757 95.2204 43.1909L95.0519 43.3601C94.5115 43.9024 93.7924 44.2012 93.0271 44.2012C92.267 44.2012 91.5513 43.9059 91.0119 43.3697C90.4706 42.8312 90.1717 42.1142 90.1699 41.3509C90.168 40.5876 90.4637 39.8694 91.0022 39.3288L91.1725 39.1577C90.6738 38.4879 90.2174 37.7849 89.8093 37.0578L89.5803 37.1457C89.2531 37.2719 88.9082 37.336 88.556 37.336C87.3825 37.336 86.311 36.5993 85.8897 35.5028C85.6158 34.7905 85.6359 34.0143 85.9461 33.317C86.2564 32.6198 86.8198 32.0852 87.5327 31.8119L87.7726 31.7198C87.6147 31.0084 87.496 30.2861 87.4181 29.562L87.1582 29.552C85.6178 29.4926 84.4111 28.2391 84.4111 26.6985C84.4111 26.6664 84.412 26.6343 84.4129 26.6014C84.4129 26.5991 84.4133 26.5893 84.4133 26.5868C84.475 25.0128 85.8054 23.7813 87.3782 23.8421L87.644 23.8523C87.7632 23.2212 87.9136 22.5955 88.0935 21.9821L87.85 21.8701C86.8386 21.4058 86.1848 20.3858 86.1848 19.2718C86.1848 18.8586 86.2726 18.4581 86.4458 18.0811C87.1031 16.6497 88.8029 16.02 90.2349 16.6776L90.4898 16.7948C90.5288 16.7346 90.5671 16.6766 90.6049 16.6198C90.8229 16.2935 91.0561 15.967 91.3013 15.6448L91.1039 15.4429C90.5784 14.9071 90.2886 14.1974 90.2886 13.4451C90.2886 12.6704 90.5935 11.9451 91.1472 11.4029C91.685 10.8766 92.3932 10.5878 93.1444 10.5878C93.1551 10.5878 93.1658 10.5878 93.1765 10.5881C93.9399 10.5964 94.6541 10.9015 95.1878 11.4472L95.3865 11.6502C95.7664 11.3751 96.1553 11.1141 96.5496 10.8697L96.4359 10.6077C96.2791 10.2453 96.1997 9.86377 96.1997 9.47301C96.1997 8.33341 96.8753 7.30372 97.921 6.84983C99.3661 6.2234 101.052 6.88939 101.679 8.33414L101.796 8.60455C102.408 8.44103 103.028 8.3066 103.649 8.20296L103.644 7.85728C103.644 6.31009 104.903 5.02862 106.45 5.00061C107.213 4.98498 107.936 5.27138 108.485 5.80126C109.034 6.33125 109.344 7.04329 109.357 7.80642L109.363 8.09679C110.081 8.18937 110.796 8.32235 111.499 8.49417L111.609 8.22629C112.204 6.76771 113.875 6.06517 115.334 6.66046C116.792 7.25502 117.494 8.9257 116.899 10.3846L116.79 10.6522C117.301 10.9536 117.804 11.2795 118.291 11.6253L118.487 11.4244C119.028 10.868 119.755 10.5614 120.532 10.5614C121.282 10.5614 121.99 10.8495 122.527 11.3725C123.655 12.4722 123.678 14.2845 122.579 15.4126L122.437 15.5581C122.74 15.9429 123.029 16.3393 123.3 16.7435L123.464 16.6679C123.843 16.4939 124.244 16.4058 124.656 16.4058C125.77 16.4058 126.79 17.0591 127.254 18.0703C127.573 18.7634 127.603 19.5392 127.338 20.2549C127.073 20.9705 126.546 21.5402 125.852 21.8592L125.74 21.9108C125.872 22.3535 125.989 22.8018 126.088 23.252L126.207 23.2438C126.275 23.2393 126.341 23.2372 126.406 23.2372C127.899 23.2372 129.15 24.4049 129.254 25.8956C129.308 26.6569 129.061 27.3935 128.56 27.9694C128.059 28.545 127.364 28.8912 126.603 28.9442L126.464 28.9539C126.411 29.573 126.327 30.1933 126.213 30.8077L126.364 30.857C127.54 31.2437 128.33 32.3344 128.33 33.571C128.33 33.8728 128.281 34.173 128.186 34.4632C127.948 35.1881 127.442 35.7773 126.761 36.1215C126.08 36.4655 125.305 36.5238 124.58 36.2857L124.363 36.2146C124.126 36.6756 123.87 37.1315 123.597 37.5781L123.783 37.732C124.442 38.2774 124.82 39.0804 124.82 39.9354C124.82 40.5962 124.588 41.242 124.165 41.7536C123.679 42.3423 122.993 42.7063 122.234 42.7787C121.475 42.8515 120.732 42.6233 120.143 42.1372L119.961 41.9867C119.469 42.4321 118.953 42.8534 118.417 43.2462L118.527 43.4529C118.743 43.8643 118.858 44.3246 118.858 44.7845C118.858 45.8475 118.274 46.8162 117.333 47.3126C116.658 47.6687 115.885 47.7408 115.156 47.5155C114.426 47.2902 113.829 46.7942 113.473 46.1191L113.364 45.9127C112.463 46.23 111.538 46.4817 110.604 46.6643L110.635 47.163C110.638 47.2237 110.64 47.2809 110.64 47.3382C110.64 48.8041 109.493 50.0235 108.028 50.1143C107.969 50.1185 107.909 50.1203 107.851 50.1203ZM102.215 45.1976C102.267 45.1976 102.319 45.204 102.37 45.2169C103.465 45.4934 104.591 45.6686 105.717 45.7375C105.891 45.7482 106.054 45.8309 106.165 45.9658C106.276 46.1008 106.326 46.2759 106.303 46.4492C106.289 46.5517 106.285 46.6543 106.292 46.754L106.333 47.4309C106.359 47.8369 106.541 48.2094 106.846 48.4791C107.151 48.7487 107.543 48.8836 107.95 48.8577C108.752 48.8079 109.38 48.1408 109.38 47.3387C109.38 47.3046 109.379 47.2707 109.377 47.2367L109.336 46.5649C109.33 46.4802 109.316 46.3883 109.294 46.2944C109.254 46.1244 109.286 45.9455 109.383 45.8002C109.48 45.655 109.633 45.5565 109.806 45.5284C111.041 45.3268 112.264 44.9951 113.439 44.5432C113.748 44.4245 114.096 44.5651 114.236 44.8648C114.243 44.88 114.251 44.8952 114.259 44.9105L114.587 45.5322C114.785 45.9093 115.12 46.1866 115.527 46.3126C115.935 46.4386 116.367 46.3982 116.745 46.1991C117.271 45.9214 117.598 45.3795 117.598 44.7849C117.598 44.525 117.535 44.2747 117.412 44.0408L117.086 43.4225C117.083 43.4181 117.081 43.4139 117.079 43.4095C117.073 43.3975 117.066 43.3858 117.059 43.3741C116.892 43.0895 116.972 42.7229 117.244 42.5357C118.043 41.9848 118.802 41.365 119.502 40.6936C119.742 40.463 120.121 40.4593 120.366 40.6857C120.378 40.697 120.39 40.7077 120.403 40.718L120.945 41.1665C121.274 41.4382 121.69 41.5658 122.114 41.5253C122.539 41.4848 122.922 41.2813 123.194 40.9522C123.43 40.6657 123.561 40.3048 123.561 39.9358C123.561 39.4575 123.349 39.0081 122.98 38.703L122.441 38.2574C122.423 38.2426 122.404 38.2278 122.384 38.2129C122.123 38.013 122.06 37.6455 122.239 37.3697C122.7 36.6603 123.115 35.921 123.474 35.1726C123.613 34.882 123.949 34.7431 124.252 34.851L124.317 34.8742L124.972 35.0892C125.379 35.2228 125.812 35.1901 126.192 34.9976C126.573 34.8052 126.856 34.476 126.989 34.0707C127.043 33.907 127.07 33.7392 127.07 33.5712C127.07 32.8799 126.628 32.2701 125.971 32.0538L125.317 31.8395C125.305 31.836 125.294 31.8326 125.285 31.8295C124.981 31.727 124.803 31.4133 124.87 31.1003C125.067 30.1861 125.193 29.2537 125.246 28.3286C125.264 28.012 125.514 27.7581 125.83 27.7358L126.514 27.6877C126.514 27.6877 126.514 27.6877 126.515 27.6877C126.941 27.6581 127.329 27.4646 127.609 27.1426C127.889 26.8207 128.027 26.4091 127.997 25.9834C127.939 25.1496 127.24 24.4967 126.406 24.4967C126.368 24.4967 126.33 24.4979 126.291 24.5004L125.625 24.5467C125.308 24.5697 125.022 24.3491 124.963 24.0356C124.818 23.2721 124.621 22.5095 124.375 21.7689C124.274 21.4645 124.418 21.1327 124.71 20.9987L125.326 20.715C125.714 20.5366 126.009 20.2181 126.157 19.8181C126.304 19.4181 126.288 18.9842 126.109 18.5964C125.85 18.0307 125.279 17.6654 124.656 17.6654C124.426 17.6654 124.203 17.7148 123.99 17.8122L123.356 18.1048C123.35 18.1078 123.338 18.1136 123.326 18.119C123.039 18.2468 122.703 18.1445 122.536 17.8793C122.11 17.2017 121.63 16.5436 121.111 15.9228C120.901 15.6722 120.918 15.303 121.149 15.0724L121.185 15.0374L121.677 14.5332C122.291 13.9028 122.278 12.8893 121.648 12.2744C121.348 11.982 120.952 11.821 120.532 11.821C120.098 11.821 119.692 11.9923 119.389 12.3034L118.901 12.8043C118.875 12.8296 118.857 12.8505 118.839 12.8717C118.622 13.121 118.249 13.1602 117.985 12.9619C117.324 12.4654 116.627 12.0068 115.912 11.5988C115.85 11.5628 115.789 11.5293 115.728 11.496L115.691 11.4755C115.394 11.3125 115.279 10.9443 115.431 10.6417C115.444 10.6146 115.457 10.5871 115.468 10.559L115.733 9.90899C116.066 9.09343 115.673 8.15932 114.858 7.82686C114.042 7.49417 113.108 7.88674 112.775 8.70254L112.51 9.34989C112.498 9.38139 112.486 9.4153 112.475 9.44884C112.366 9.76241 112.032 9.93892 111.712 9.85079C110.721 9.57774 109.699 9.38776 108.676 9.28604C108.345 9.25322 108.097 8.96886 108.109 8.63677C108.11 8.60082 108.111 8.56487 108.111 8.52832L108.098 7.82927C108.091 7.40231 107.917 7.00409 107.61 6.70783C107.303 6.41157 106.9 6.25238 106.472 6.26008C105.607 6.27571 104.904 6.99231 104.904 7.85753V7.89804L104.916 8.58567C104.917 8.62403 104.92 8.66082 104.922 8.69761C104.946 9.02862 104.708 9.32127 104.379 9.36624C103.45 9.49345 102.519 9.69496 101.612 9.96549C101.295 10.0602 100.959 9.89323 100.843 9.58375C100.83 9.5484 100.816 9.51316 100.801 9.47806L100.523 8.83528C100.173 8.02802 99.2298 7.65553 98.4223 8.00578C97.8375 8.25971 97.4593 8.83588 97.4593 9.47349C97.4593 9.69124 97.5038 9.90441 97.5916 10.1073L97.8698 10.7482C97.8827 10.7782 97.8958 10.8062 97.9101 10.8336C98.0653 11.1324 97.9581 11.5004 97.6667 11.6691C96.9934 12.0587 96.3325 12.502 95.7024 12.9867C95.4391 13.1891 95.0639 13.1522 94.8449 12.9026C94.8244 12.8792 94.8034 12.8555 94.7812 12.8331L94.2874 12.3284C93.9891 12.0232 93.5897 11.8527 93.1628 11.848C92.737 11.8457 92.3332 12.0052 92.0284 12.3036C91.7187 12.6067 91.5482 13.0125 91.5482 13.4457C91.5482 13.8662 91.71 14.2627 92.0039 14.5623L92.4932 15.0628C92.5193 15.0902 92.5401 15.1087 92.5606 15.1271C92.8099 15.3507 92.8407 15.7303 92.6305 15.9912C92.2796 16.4266 91.9506 16.8737 91.6526 17.3202C91.5314 17.5015 91.404 17.7013 91.2629 17.9312C91.0876 18.2168 90.7193 18.3151 90.4248 18.155C90.3989 18.1408 90.3728 18.1278 90.3456 18.1153L89.7093 17.8229C89.3216 17.6449 88.8876 17.6283 88.4872 17.7766C88.087 17.9248 87.7686 18.2199 87.5905 18.6075C87.4936 18.8184 87.4446 19.0421 87.4446 19.2724C87.4446 19.8959 87.8102 20.4665 88.376 20.7262L89.0119 21.0185C89.0412 21.0321 89.0692 21.0433 89.0969 21.0547C89.402 21.1796 89.5605 21.5194 89.4583 21.833C89.1656 22.7317 88.9414 23.6646 88.7917 24.6056C88.7396 24.9327 88.4441 25.1636 88.1134 25.1339C88.085 25.1314 88.0559 25.1295 88.0261 25.1283L87.3297 25.1013C86.4496 25.0666 85.7064 25.7564 85.6719 26.6369C85.6713 26.6583 85.6707 26.6787 85.6707 26.6992C85.6707 27.5603 86.3456 28.261 87.2071 28.2943L87.9061 28.3214C87.929 28.3218 87.9619 28.3226 87.994 28.3226C88.3227 28.3226 88.5962 28.5754 88.6219 28.9032C88.7025 29.931 88.8714 30.9595 89.1239 31.9598C89.205 32.2813 89.0231 32.6106 88.7077 32.713C88.6871 32.7197 88.6658 32.7267 88.6451 32.735L87.9844 32.9888C87.5856 33.1418 87.2706 33.4405 87.0972 33.8303C86.9238 34.2199 86.9126 34.6538 87.0657 35.052C87.3014 35.6655 87.9004 36.0775 88.5562 36.0775C88.7527 36.0775 88.9452 36.0417 89.1282 35.9711L89.7827 35.7199C89.7866 35.7184 89.7905 35.7171 89.7944 35.7155C89.8103 35.7097 89.8257 35.7027 89.8417 35.6956C90.1453 35.5599 90.5024 35.6839 90.6565 35.9787C91.18 36.9788 91.8013 37.9361 92.5031 38.8239C92.707 39.082 92.6782 39.4533 92.4369 39.6767C92.4186 39.6936 92.4034 39.7073 92.3883 39.7225L91.8949 40.2183C91.5938 40.5207 91.4286 40.9221 91.4296 41.3488C91.4306 41.7755 91.5978 42.1763 91.9004 42.4774C92.2019 42.7773 92.6022 42.9425 93.0272 42.9425C93.4551 42.9425 93.8573 42.7754 94.1597 42.4718L94.6536 41.9762C94.6623 41.9669 94.6786 41.9492 94.695 41.9315C94.9178 41.6906 95.2924 41.6568 95.5505 41.8595C95.912 42.1436 96.2953 42.4217 96.6896 42.686C97.2829 43.0821 97.9073 43.4486 98.5447 43.7748C98.701 43.8547 98.8168 43.9962 98.8642 44.1652C98.9117 44.3341 98.8864 44.5153 98.7945 44.6649C98.7428 44.7491 98.7014 44.8322 98.6679 44.9188L98.4241 45.55C98.2773 45.93 98.2874 46.3443 98.4525 46.7169C98.6176 47.0895 98.9177 47.3756 99.2977 47.5224C99.4752 47.5906 99.6599 47.6253 99.8459 47.6253C100.472 47.6253 101.044 47.2329 101.269 46.6489L101.513 46.0173C101.55 45.9219 101.578 45.8231 101.595 45.7226C101.624 45.5493 101.725 45.3964 101.872 45.3004C101.975 45.2326 102.095 45.1976 102.215 45.1976Z" fill="#3047FD"/>
<path d="M213.326 116H207.023V104.376H221.867C222.718 104.376 223.408 105.066 223.408 105.917C223.408 111.486 218.894 116 213.326 116Z" fill="#3047FD"/>
<path d="M117.695 29.5227C118.781 23.4635 114.75 17.6708 108.691 16.5843C102.632 15.4978 96.8389 19.529 95.7524 25.5881C94.6659 31.6473 98.6971 37.44 104.756 38.5265C110.815 39.613 116.608 35.5819 117.695 29.5227Z" fill="#99B9FF"/>
<path d="M211.694 123.927C212.144 121.154 210.261 118.542 207.488 118.092C204.715 117.642 202.103 119.525 201.653 122.298C201.203 125.071 203.086 127.683 205.859 128.133C208.631 128.583 211.244 126.7 211.694 123.927Z" fill="white"/>
<path d="M207.023 123.837C206.517 123.837 206.106 123.427 206.106 122.921V102.231C206.106 101.724 206.517 101.314 207.023 101.314C207.529 101.314 207.94 101.724 207.94 102.231V122.921C207.94 123.427 207.529 123.837 207.023 123.837Z" fill="#2D2D2D"/>
<path d="M148.349 55.972C148.094 55.972 147.87 55.7854 147.831 55.5252C147.788 55.2385 147.985 54.9713 148.272 54.9281L160.132 53.1438C160.417 53.1009 160.686 53.2981 160.729 53.5847C160.772 53.8714 160.575 54.1386 160.288 54.1818L148.428 55.9661C148.401 55.9701 148.375 55.972 148.349 55.972Z" fill="#3047FD"/>
<path d="M149.156 60.5432C148.901 60.5432 148.677 60.3566 148.638 60.0964C148.595 59.8098 148.792 59.5425 149.079 59.4993L160.939 57.715C161.224 57.6727 161.493 57.8692 161.536 58.1559C161.579 58.4426 161.382 58.7099 161.095 58.753L149.235 60.5373C149.208 60.5413 149.182 60.5432 149.156 60.5432Z" fill="#3047FD"/>
<path d="M149.966 65.1161C149.71 65.1161 149.486 64.9295 149.447 64.6693C149.404 64.3826 149.602 64.1154 149.888 64.0722L156.405 63.0918C156.689 63.0495 156.958 63.2459 157.002 63.5327C157.045 63.8193 156.847 64.0866 156.561 64.1298L150.044 65.1102C150.018 65.1142 149.992 65.1161 149.966 65.1161Z" fill="#3047FD"/>
<path d="M173.998 132.005C173.944 132.005 173.889 131.997 173.835 131.979L160.66 127.68C160.385 127.59 160.234 127.293 160.324 127.018C160.414 126.742 160.711 126.592 160.986 126.682L174.161 130.981C174.436 131.071 174.587 131.368 174.497 131.643C174.424 131.865 174.219 132.005 173.998 132.005Z" fill="#3047FD"/>
<path d="M161.822 133.95C161.66 133.95 161.501 133.875 161.398 133.735C161.227 133.501 161.277 133.173 161.511 133.001L172.691 124.812C172.925 124.641 173.253 124.692 173.425 124.926C173.596 125.159 173.545 125.488 173.311 125.659L162.131 133.848C162.038 133.917 161.929 133.95 161.822 133.95Z" fill="#3047FD"/>
<path d="M207.744 90.6911C207.69 90.6911 207.635 90.6827 207.581 90.665L194.407 86.3654C194.131 86.2755 193.981 85.9792 194.07 85.7037C194.161 85.4281 194.457 85.2777 194.732 85.3677L207.907 89.6673C208.182 89.7572 208.333 90.0535 208.243 90.3289C208.17 90.5504 207.965 90.6911 207.744 90.6911Z" fill="#3047FD"/>
<path d="M195.568 92.6367C195.406 92.6367 195.247 92.5622 195.144 92.4219C194.973 92.1882 195.023 91.8597 195.257 91.6885L206.437 83.4992C206.671 83.3278 206.999 83.3787 207.171 83.6125C207.342 83.8462 207.291 84.1747 207.057 84.3459L195.877 92.5352C195.784 92.6036 195.675 92.6367 195.568 92.6367Z" fill="#3047FD"/>
<path d="M128.547 103.231C128.493 103.231 128.438 103.222 128.384 103.205L115.21 98.905C114.934 98.8151 114.784 98.5188 114.874 98.2433C114.964 97.9677 115.26 97.8176 115.535 97.9072L128.71 102.207C128.986 102.297 129.136 102.593 129.046 102.869C128.974 103.09 128.768 103.231 128.547 103.231Z" fill="#3047FD"/>
<path d="M116.37 105.175C116.208 105.175 116.049 105.101 115.946 104.96C115.775 104.727 115.826 104.398 116.059 104.227L127.239 96.0378C127.473 95.8666 127.802 95.9173 127.973 96.1511C128.144 96.3849 128.093 96.7133 127.86 96.8846L116.68 105.074C116.586 105.142 116.478 105.175 116.37 105.175Z" fill="#3047FD"/>
<path d="M243.738 37.0169C244.184 36.9859 244.521 36.5992 244.49 36.153C244.46 35.7261 244.104 35.3996 243.683 35.3996C243.664 35.3996 243.645 35.4002 243.626 35.4014L243.383 35.4183C243.328 35.1295 243.254 34.8444 243.162 34.5648L243.386 34.4617C243.792 34.2748 243.97 33.7942 243.783 33.3879C243.647 33.0911 243.353 32.9162 243.047 32.9162C242.934 32.9162 242.819 32.9402 242.709 32.9905L242.478 33.097C242.475 33.0982 242.472 33.0997 242.47 33.101C242.309 32.846 242.13 32.6001 241.933 32.3648C241.939 32.3592 241.945 32.354 241.95 32.3485L242.128 32.1665C242.44 31.8461 242.433 31.3336 242.113 31.0215C241.955 30.8681 241.751 30.7917 241.547 30.7917C241.337 30.7917 241.126 30.8733 240.968 31.0362L240.79 31.2182C240.779 31.2293 240.769 31.2406 240.759 31.2523C240.515 31.0691 240.256 30.8979 239.981 30.741C239.954 30.725 239.926 30.7097 239.898 30.6944C239.905 30.679 239.912 30.6634 239.919 30.6474L240.015 30.412C240.184 29.998 239.985 29.5254 239.571 29.3566C239.157 29.1875 238.685 29.3864 238.515 29.8004L238.419 30.0358C238.413 30.0517 238.407 30.0677 238.402 30.0836C238.025 29.9799 237.643 29.9093 237.26 29.8713C237.261 29.8541 237.261 29.8369 237.261 29.8194L237.256 29.5653C237.248 29.1182 236.879 28.7622 236.432 28.7702C235.99 28.7781 235.637 29.1393 235.637 29.5797V29.5944L235.642 29.8485C235.642 29.8663 235.643 29.8838 235.644 29.9013C235.292 29.9495 234.945 30.025 234.604 30.1266C234.598 30.1103 234.592 30.0941 234.585 30.0778L234.484 29.8443C234.306 29.4343 233.829 29.2458 233.419 29.4235C233.114 29.5561 232.931 29.8541 232.931 30.1671C232.931 30.2745 232.952 30.3835 232.998 30.4884L233.099 30.7217C233.106 30.7373 233.113 30.7524 233.121 30.7671C232.865 30.915 232.618 31.0807 232.382 31.2627C232.371 31.2505 232.36 31.2382 232.348 31.2265L232.17 31.0448C231.858 30.725 231.345 30.7195 231.025 31.0322C230.863 31.1909 230.782 31.4008 230.782 31.611C230.782 31.8154 230.859 32.0198 231.013 32.1772L231.191 32.3589C231.202 32.3709 231.214 32.382 231.226 32.3927C231.098 32.5523 230.974 32.7186 230.858 32.8923C230.808 32.9681 230.759 33.0448 230.712 33.1219C230.698 33.1142 230.684 33.1071 230.669 33.1004L230.438 32.9942C230.032 32.8076 229.551 32.9856 229.364 33.3919C229.314 33.5015 229.29 33.6163 229.29 33.7292C229.29 34.0358 229.466 34.3295 229.762 34.4657L229.993 34.5719C230.007 34.578 230.02 34.5835 230.034 34.5891C229.922 34.9322 229.839 35.2808 229.783 35.6319C229.769 35.6307 229.755 35.6298 229.74 35.6291L229.486 35.6193C229.04 35.6021 228.664 35.9504 228.646 36.3973C228.646 36.408 228.646 36.4185 228.646 36.4289C228.646 36.8616 228.988 37.2207 229.424 37.2376L229.678 37.2474C229.692 37.2477 229.706 37.248 229.719 37.248C229.749 37.6359 229.813 38.0205 229.908 38.3973C229.895 38.4013 229.883 38.4056 229.871 38.4105L229.633 38.5017C229.216 38.6619 229.007 39.1302 229.168 39.5475C229.292 39.8695 229.598 40.0671 229.923 40.0671C230.02 40.0671 230.118 40.0499 230.214 40.0131L230.451 39.922C230.462 39.918 230.473 39.9133 230.484 39.9084C230.68 40.2832 230.912 40.6416 231.179 40.9786C231.17 40.9862 231.162 40.9936 231.154 41.0016L230.975 41.182C230.659 41.4987 230.661 42.0115 230.978 42.327C231.136 42.4842 231.342 42.5627 231.549 42.5627C231.756 42.5627 231.964 42.4833 232.123 42.3243L232.302 42.1441C232.31 42.1361 232.317 42.1282 232.325 42.1202C232.462 42.2282 232.605 42.3316 232.753 42.4308C232.98 42.5824 233.213 42.7186 233.45 42.8402C233.425 42.8807 233.404 42.9236 233.386 42.9697L233.297 43.1992C233.141 43.6028 233.342 44.0564 233.746 44.2123C233.838 44.2479 233.934 44.2651 234.027 44.2651C234.342 44.2651 234.639 44.0745 234.759 43.7636L234.847 43.534C234.867 43.4843 234.88 43.4334 234.889 43.3827C235.304 43.4877 235.726 43.5528 236.148 43.5785C236.141 43.6292 236.139 43.6813 236.142 43.7341L236.157 43.9797C236.184 44.4114 236.556 44.7398 236.988 44.7128C237.403 44.687 237.722 44.3424 237.722 43.9321C237.722 43.9155 237.722 43.8989 237.721 43.8824L237.706 43.6369C237.703 43.5899 237.695 43.5442 237.685 43.5C238.151 43.4239 238.609 43.2996 239.051 43.1296C239.056 43.1388 239.06 43.148 239.065 43.1572L239.184 43.3822C239.392 43.7778 239.882 43.929 240.278 43.7204C240.553 43.5752 240.71 43.2944 240.71 43.0038C240.71 42.8764 240.679 42.7472 240.616 42.6266L240.497 42.4016C240.492 42.3924 240.487 42.3835 240.482 42.3746C240.781 42.1687 241.065 41.9376 241.332 41.6817C241.339 41.689 241.347 41.6961 241.356 41.7028L241.552 41.8649C241.897 42.1497 242.407 42.1012 242.692 41.7562C242.816 41.6053 242.877 41.4226 242.877 41.241C242.877 41.0077 242.777 40.7767 242.583 40.6165L242.387 40.4544C242.378 40.4471 242.369 40.44 242.36 40.4329C242.535 40.1638 242.689 39.8885 242.823 39.6083C242.832 39.6114 242.84 39.6145 242.849 39.6175L243.09 39.6967C243.515 39.8363 243.973 39.6052 244.112 39.1802C244.14 39.0961 244.153 39.0111 244.153 38.9273C244.153 38.587 243.937 38.2703 243.596 38.1582L243.355 38.0791C243.352 38.0784 243.35 38.0778 243.348 38.0772C243.423 37.7307 243.47 37.3821 243.49 37.0344L243.738 37.0169ZM240.965 39.5727C239.39 41.9897 236.073 42.6738 233.671 41.0746C231.26 39.4687 230.61 36.2104 232.22 33.8025C233.828 31.3974 237.082 30.7514 239.486 32.3595C241.874 33.956 242.528 37.1731 240.965 39.5727Z" fill="#3047FD"/>
</svg>
